<mxfile>
    <diagram id="XhVq-Yr4j_XUXlwAiB6I" name="第 1 页">
        <mxGraphModel dx="898" dy="680" grid="1" gridSize="10" guides="1" tooltips="1" connect="1" arrows="1" fold="1" page="1" pageScale="1" pageWidth="827" pageHeight="1169" math="0" shadow="0">
            <root>
                <mxCell id="0"/>
                <mxCell id="1" parent="0"/>
                <mxCell id="5" value="" style="edgeStyle=orthogonalEdgeStyle;rounded=0;orthogonalLoop=1;jettySize=auto;html=1;" edge="1" parent="1" source="3" target="4">
                    <mxGeometry relative="1" as="geometry"/>
                </mxCell>
                <mxCell id="3" value="" style="ellipse;whiteSpace=wrap;html=1;dashed=1;shadow=1;sketch=1;gradientColor=#ffffff;fillStyle=hachure;fillColor=#7F00FF;" parent="1" vertex="1">
                    <mxGeometry x="150" y="180" width="120" height="80" as="geometry"/>
                </mxCell>
                <mxCell id="4" value="" style="shape=hexagon;perimeter=hexagonPerimeter2;whiteSpace=wrap;html=1;fixedSize=1;shadow=1;dashed=1;fillColor=#7F00FF;gradientColor=#ffffff;sketch=1;fillStyle=hachure;" vertex="1" parent="1">
                    <mxGeometry x="150" y="340" width="120" height="80" as="geometry"/>
                </mxCell>
            </root>
        </mxGraphModel>
    </diagram>
</mxfile>